<svg width="20" height="21" viewBox="0 0 20 21" fill="none" xmlns="http://www.w3.org/2000/svg">
<path fill-rule="evenodd" clip-rule="evenodd" d="M13.6552 10.8096L14.1169 10.901C17.3973 11.5507 18.9004 13.6671 19.5379 15.5824C19.85 16.5199 19.9574 17.4069 19.9888 18.0537C20.0045 18.3791 20.0013 18.6495 19.9937 18.8423C19.9899 18.9388 19.985 19.0164 19.9808 19.0722C19.9787 19.1001 19.9768 19.1227 19.9753 19.1394L19.9733 19.1603L19.9726 19.1674L19.9722 19.1713C19.9721 19.1718 19.9721 19.1723 18.9632 19.0643L19.9721 19.1723L19.875 20.0789H0.181414L0.0729455 19.1867C-0.345287 15.7468 1.10212 13.6133 2.69797 12.3891C3.47338 11.7942 4.26727 11.4237 4.863 11.2026C5.16257 11.0914 5.41806 11.0157 5.60473 10.9674C5.69779 10.9433 5.77647 10.9253 5.83752 10.9129C5.86686 10.9069 5.89826 10.9009 5.92839 10.8961C5.94064 10.8941 5.96779 10.8899 6.00025 10.8866C6.01164 10.8855 6.0561 10.8811 6.1114 10.8815L6.11259 10.8815C6.13271 10.8816 6.21559 10.8822 6.31777 10.9041C6.38039 10.9196 6.54538 10.9821 6.64355 11.0363C6.67391 11.0599 6.70792 11.0941 6.74348 11.1362L6.75763 11.1193C8.34616 12.4534 9.93326 12.4509 11.1748 12.1153C11.8085 11.944 12.3472 11.6846 12.729 11.4656C12.9186 11.3569 13.0656 11.2604 13.162 11.1935C13.2101 11.1602 13.2453 11.1344 13.2666 11.1185C13.2772 11.1106 13.2843 11.1051 13.2878 11.1024C13.2886 11.1019 13.2891 11.1014 13.2896 11.1011L13.2903 11.1005L13.6552 10.8096ZM17.9563 18.0497C17.925 17.5418 17.8349 16.8913 17.6126 16.2233C17.178 14.9178 16.2499 13.5407 14.1326 12.9856C14.0213 13.0578 13.8894 13.1394 13.7387 13.2258C13.2499 13.5062 12.5486 13.846 11.7043 14.0743C10.0974 14.5086 7.9582 14.5337 5.87045 13.0017C5.78112 13.0297 5.67981 13.0639 5.56912 13.105C5.1072 13.2764 4.50629 13.5594 3.93308 13.9991C2.96267 14.7435 2.02044 15.9652 2.02943 18.0497H17.9563Z" fill="#6E7191"/>
<path fill-rule="evenodd" clip-rule="evenodd" d="M4.51758 5.48536C4.51758 2.45589 6.97344 0 10.0029 0C13.0324 0 15.4883 2.45588 15.4883 5.48536C15.4883 8.51486 13.0324 10.9708 10.0029 10.9708C6.97343 10.9708 4.51758 8.51484 4.51758 5.48536ZM10.0029 2.02922C8.09415 2.02922 6.5468 3.57659 6.5468 5.48536C6.5468 7.39416 8.09416 8.94153 10.0029 8.94153C11.9117 8.94153 13.4591 7.39415 13.4591 5.48536C13.4591 3.5766 11.9117 2.02922 10.0029 2.02922Z" fill="#6E7191"/>
</svg>
